<svg width="61" height="59" viewBox="0 0 61 59" fill="none" xmlns="http://www.w3.org/2000/svg">
<path d="M55.8818 29.5C55.8818 43.5087 44.3201 54.8948 30.0211 54.8948C15.722 54.8948 4.16031 43.5087 4.16031 29.5C4.16031 15.4913 15.722 4.10529 30.0211 4.10529C44.3201 4.10529 55.8818 15.4913 55.8818 29.5Z" stroke="#F44336" stroke-width="2"/>
<mask id="mask0_3475_12250" style="mask-type:alpha" maskUnits="userSpaceOnUse" x="2" y="2" width="56" height="55">
<path d="M30.0211 56.2752C45.0596 56.2752 57.2622 44.2938 57.2622 29.5C57.2622 14.7063 45.0596 2.72489 30.0211 2.72489C14.9825 2.72489 2.77991 14.7063 2.77991 29.5C2.77991 44.2938 14.9825 56.2752 30.0211 56.2752Z" fill="white" stroke="white" stroke-width="0.760801"/>
</mask>
<g mask="url(#mask0_3475_12250)">
<path d="M29.4999 26C31.3789 26 33.2156 25.4428 34.7779 24.399C36.3401 23.3551 37.5578 21.8714 38.2768 20.1355C38.9958 18.3996 39.184 16.4895 38.8174 14.6466C38.4508 12.8038 37.546 11.1111 36.2174 9.78249C34.8889 8.45389 33.1961 7.5491 31.3533 7.18254C29.5105 6.81598 27.6003 7.00412 25.8644 7.72315C24.1285 8.44218 22.6449 9.65982 21.601 11.2221C20.5571 12.7844 19.9999 14.6211 19.9999 16.5C19.9999 19.0196 21.0008 21.4359 22.7824 23.2175C24.564 24.9991 26.9804 26 29.4999 26ZM29.4999 9.71429C30.842 9.71429 32.154 10.1123 33.2699 10.8579C34.3858 11.6035 35.2555 12.6633 35.7691 13.9032C36.2827 15.1431 36.4171 16.5075 36.1553 17.8238C35.8934 19.1401 35.2472 20.3492 34.2982 21.2982C33.3492 22.2472 32.1401 22.8935 30.8238 23.1553C29.5075 23.4172 28.1431 23.2828 26.9032 22.7692C25.6632 22.2556 24.6034 21.3858 23.8578 20.2699C23.1122 19.154 22.7142 17.8421 22.7142 16.5C22.7142 14.7003 23.4291 12.9743 24.7017 11.7018C25.9743 10.4292 27.7003 9.71429 29.4999 9.71429Z" fill="black"/>
<path d="M46.2864 36.2848C44.1276 33.9839 41.5261 32.1511 38.641 30.8986C35.7559 29.646 32.6478 29 29.5066 29C26.3655 29 23.2574 29.646 20.3723 30.8986C17.4872 32.1511 14.8857 33.9839 12.7269 36.2848C12.2588 36.789 11.9989 37.454 11.9999 38.1446V45.285C11.9999 46.0051 12.2836 46.6956 12.7885 47.2048C13.2934 47.714 13.9782 48 14.6922 48H44.3076C45.0216 48 45.7064 47.714 46.2113 47.2048C46.7162 46.6956 46.9999 46.0051 46.9999 45.285V38.1446C47.0046 37.4559 46.7495 36.7911 46.2864 36.2848ZM44.3076 45.285H14.6922V38.131C16.6 36.1052 18.8967 34.492 21.4423 33.3897C23.988 32.2873 26.7295 31.7189 29.4999 31.7189C32.2704 31.7189 35.0118 32.2873 37.5575 33.3897C40.1031 34.492 42.3998 36.1052 44.3076 38.131V45.285Z" fill="black"/>
</g>
</svg>
